<?xml version="1.0" encoding="UTF-8"?>
<svg version="1.1" id="" xmlns="http://www.w3.org/2000/svg" x="0" y="0" viewBox="0 0 100 100" xml:space="preserve">
    <path id="XMLID_85_" d="M89.344 22.375H10.656c-1.743 0-3.156 1.15-3.156 2.568v2.42c0 1.418 1.413 2.568 3.156 2.568h1.198l8.119 41.134c.751 3.802 4.13 6.56 8.036 6.56h43.984c3.905 0 7.285-2.759 8.036-6.56l8.119-41.134h1.197c1.743 0 3.156-1.15 3.156-2.568v-2.42c-.001-1.418-1.414-2.568-3.157-2.568zm-41.725 7.556v16.975H35.523l-1.799-16.975h13.895zm0 21.697v21.275h-9.341l-2.255-21.275h11.596zm4.762 0h11.596l-2.255 21.275h-9.341V51.628zm0-4.722V29.931h13.895l-1.799 16.975H52.381zM28.936 29.931l1.799 16.975H20.056l-3.35-16.975h12.23zm-4.291 40.226l-3.657-18.529h10.247l2.255 21.275h-5.483a3.427 3.427 0 0 1-3.362-2.746zm50.71 0a3.427 3.427 0 0 1-3.363 2.746H66.51l2.255-21.275h10.247l-3.657 18.529zm4.589-23.251H69.265l1.799-16.975h12.23l-3.35 16.975z" fill="white"/>
</svg>